<?xml version="1.0" encoding="utf-8"?>
<!-- Generator: Adobe Illustrator 19.1.0, SVG Export Plug-In . SVG Version: 6.00 Build 0)  -->
<svg version="1.1" id="Layer_1" xmlns="http://www.w3.org/2000/svg" xmlns:xlink="http://www.w3.org/1999/xlink" x="0px" y="0px"
	 viewBox="0 0 297 85" style="enable-background:new 0 0 297 85;" xml:space="preserve">
<style type="text/css">
	.st0{fill:#676767;}
	.st1{fill:#3EB771;}
	.st2{fill:#00B3C5;}
	.st3{fill:#EE2A3C;}
	.st4{fill:#F9A11D;}
	.st5{fill:#9E489B;}
</style>
<g>
	<g>
		<path class="st0" d="M147.2,46.3h-2.7c-0.3,0-0.6-0.1-0.7-0.2c-0.2-0.2-0.3-0.3-0.4-0.6l-1.4-3.8h-7.8l-1.4,3.8
			c-0.1,0.2-0.2,0.4-0.4,0.5c-0.2,0.2-0.4,0.2-0.7,0.2h-2.7l7.4-18.8h3.6L147.2,46.3z M135,39.2h6l-2.3-6.3c-0.1-0.3-0.2-0.6-0.4-1
			c-0.1-0.4-0.2-0.8-0.4-1.2c-0.1,0.4-0.2,0.9-0.4,1.2c-0.1,0.4-0.2,0.7-0.3,1L135,39.2z"/>
		<path class="st0" d="M151.9,27v19.3h-3.2V27H151.9z"/>
		<path class="st0" d="M155.1,46.3V27h3.2v7.6c0.5-0.6,1.1-1,1.8-1.4s1.4-0.5,2.2-0.5c0.8,0,1.5,0.2,2.1,0.5s1.1,0.7,1.6,1.3
			c0.4,0.6,0.8,1.3,1,2.1c0.2,0.8,0.4,1.7,0.4,2.7c0,1.1-0.1,2.1-0.4,3c-0.3,0.9-0.7,1.6-1.2,2.3c-0.5,0.6-1.1,1.1-1.8,1.5
			c-0.7,0.3-1.5,0.5-2.3,0.5c-0.4,0-0.8,0-1.1-0.1c-0.3-0.1-0.7-0.2-0.9-0.3s-0.5-0.3-0.8-0.5s-0.5-0.4-0.7-0.7l-0.1,0.9
			c-0.1,0.2-0.1,0.4-0.3,0.5c-0.1,0.1-0.3,0.1-0.5,0.1H155.1z M161.2,35.3c-0.6,0-1.2,0.1-1.6,0.4s-0.9,0.7-1.3,1.2v6
			c0.4,0.5,0.8,0.8,1.2,0.9c0.4,0.2,0.9,0.3,1.4,0.3c0.5,0,0.9-0.1,1.3-0.3c0.4-0.2,0.7-0.5,1-0.8s0.5-0.9,0.6-1.4s0.2-1.3,0.2-2.1
			c0-1.5-0.2-2.5-0.7-3.2S162.1,35.3,161.2,35.3z"/>
		<path class="st0" d="M175.5,32.8c0.8,0,1.6,0.1,2.3,0.4c0.7,0.3,1.3,0.7,1.8,1.2c0.5,0.5,0.9,1.1,1.2,1.9s0.4,1.6,0.4,2.6
			c0,0.5-0.1,0.8-0.2,1s-0.3,0.3-0.6,0.3h-8.3c0.1,0.7,0.2,1.3,0.4,1.8c0.2,0.5,0.4,0.9,0.8,1.2c0.3,0.3,0.7,0.6,1.1,0.7
			c0.4,0.2,0.9,0.2,1.4,0.2s1-0.1,1.3-0.2c0.4-0.1,0.7-0.3,1-0.4s0.5-0.3,0.7-0.4c0.2-0.1,0.4-0.2,0.6-0.2c0.3,0,0.5,0.1,0.6,0.3
			l0.9,1.2c-0.4,0.4-0.8,0.8-1.2,1s-0.9,0.5-1.4,0.7s-1,0.3-1.5,0.4c-0.5,0.1-1,0.1-1.4,0.1c-0.9,0-1.8-0.2-2.6-0.5
			s-1.5-0.8-2.1-1.4s-1.1-1.3-1.4-2.2c-0.3-0.9-0.5-1.9-0.5-3.1c0-0.9,0.1-1.8,0.4-2.6c0.3-0.8,0.7-1.5,1.3-2.1
			c0.6-0.6,1.2-1.1,2-1.4S174.5,32.8,175.5,32.8z M175.6,35.1c-0.9,0-1.7,0.3-2.2,0.8c-0.5,0.5-0.9,1.3-1,2.2h6.1
			c0-0.4-0.1-0.8-0.2-1.2c-0.1-0.4-0.3-0.7-0.5-1c-0.2-0.3-0.5-0.5-0.9-0.7C176.5,35.2,176.1,35.1,175.6,35.1z"/>
		<path class="st0" d="M183.7,46.3V33h1.9c0.3,0,0.6,0.1,0.7,0.2c0.1,0.1,0.2,0.3,0.3,0.6l0.2,1.5c0.4-0.8,0.9-1.4,1.5-1.9
			c0.6-0.5,1.2-0.7,2-0.7c0.6,0,1.1,0.1,1.5,0.4l-0.2,2.4c0,0.2-0.1,0.3-0.2,0.3c-0.1,0.1-0.2,0.1-0.3,0.1c-0.1,0-0.3,0-0.6-0.1
			c-0.3,0-0.5-0.1-0.7-0.1c-0.4,0-0.7,0.1-0.9,0.2s-0.5,0.3-0.7,0.4c-0.2,0.2-0.4,0.4-0.6,0.7s-0.3,0.6-0.5,0.9v8.2H183.7z"/>
		<path class="st0" d="M197.9,46.6c-1.2,0-2.1-0.3-2.7-1s-0.9-1.6-0.9-2.7v-7.4h-1.4c-0.2,0-0.3-0.1-0.4-0.2
			c-0.1-0.1-0.2-0.3-0.2-0.5v-1.3l2.1-0.4l0.7-3.6c0-0.2,0.1-0.3,0.2-0.4c0.1-0.1,0.3-0.1,0.5-0.1h1.7v4.2h3.6v2.3h-3.6v7.2
			c0,0.4,0.1,0.7,0.3,1s0.5,0.4,0.8,0.4c0.2,0,0.4,0,0.5-0.1c0.1,0,0.3-0.1,0.4-0.1c0.1-0.1,0.2-0.1,0.3-0.1c0.1,0,0.2-0.1,0.2-0.1
			c0.1,0,0.2,0,0.2,0.1c0.1,0,0.1,0.1,0.2,0.2l1,1.6c-0.5,0.4-1,0.7-1.6,0.9C199.2,46.5,198.5,46.6,197.9,46.6z"/>
		<path class="st0" d="M211.8,46.3c-0.3,0-0.5,0-0.7-0.1c-0.2-0.1-0.3-0.3-0.4-0.6l-0.3-0.9c-0.3,0.3-0.7,0.6-1,0.8s-0.7,0.4-1,0.6
			c-0.3,0.2-0.7,0.3-1.1,0.4c-0.4,0.1-0.8,0.1-1.3,0.1c-0.6,0-1.1-0.1-1.6-0.2s-0.9-0.4-1.2-0.7c-0.3-0.3-0.6-0.7-0.8-1.1
			c-0.2-0.5-0.3-1-0.3-1.6c0-0.5,0.1-1,0.4-1.5c0.3-0.5,0.7-0.9,1.3-1.3c0.6-0.4,1.4-0.7,2.5-1c1-0.3,2.3-0.4,3.8-0.4v-0.8
			c0-0.9-0.2-1.6-0.6-2c-0.4-0.4-0.9-0.6-1.7-0.6c-0.5,0-1,0.1-1.3,0.2c-0.3,0.1-0.6,0.3-0.9,0.4c-0.3,0.2-0.5,0.3-0.7,0.4
			c-0.2,0.1-0.4,0.2-0.7,0.2c-0.2,0-0.4-0.1-0.6-0.2c-0.2-0.1-0.3-0.3-0.4-0.4l-0.6-1c1.5-1.4,3.4-2.1,5.5-2.1
			c0.8,0,1.5,0.1,2.1,0.4c0.6,0.3,1.1,0.6,1.6,1.1c0.4,0.5,0.7,1,1,1.6c0.2,0.6,0.3,1.3,0.3,2.1v8.4H211.8z M207,44.3
			c0.7,0,1.2-0.1,1.7-0.4s1-0.6,1.4-1.1v-2.2c-0.9,0-1.7,0.1-2.3,0.2c-0.6,0.1-1.1,0.3-1.5,0.4c-0.4,0.2-0.7,0.4-0.8,0.6
			c-0.2,0.2-0.2,0.5-0.2,0.8c0,0.6,0.2,1,0.5,1.2C206.1,44.2,206.5,44.3,207,44.3z"/>
		<path class="st0" d="M134.6,70.2v7.3h-3.5V58.7h5.7c1.3,0,2.4,0.1,3.3,0.4s1.7,0.6,2.2,1.1s1,1,1.3,1.7s0.4,1.4,0.4,2.2
			c0,0.6-0.1,1.2-0.3,1.8c-0.2,0.6-0.5,1.1-0.8,1.5s-0.8,0.9-1.3,1.2c-0.5,0.3-1.1,0.6-1.8,0.8c0.4,0.3,0.8,0.6,1.1,1.1l4.7,6.9
			h-3.2c-0.6,0-1-0.2-1.3-0.7l-4-6c-0.1-0.2-0.3-0.4-0.5-0.5c-0.2-0.1-0.4-0.1-0.8-0.1H134.6z M134.6,67.7h2.2
			c0.7,0,1.2-0.1,1.7-0.2c0.5-0.2,0.9-0.4,1.2-0.7c0.3-0.3,0.6-0.6,0.7-1c0.2-0.4,0.2-0.8,0.2-1.3c0-1-0.3-1.7-0.9-2.2
			c-0.6-0.5-1.6-0.8-2.9-0.8h-2.2V67.7z"/>
		<path class="st0" d="M147.1,77.5V58.2h3.2v7.4c0.5-0.5,1.1-0.9,1.7-1.2s1.4-0.5,2.2-0.5c0.7,0,1.4,0.1,1.9,0.4
			c0.6,0.2,1,0.6,1.4,1c0.4,0.4,0.7,1,0.9,1.6s0.3,1.3,0.3,2v8.5h-3.2v-8.5c0-0.8-0.2-1.4-0.6-1.9s-0.9-0.7-1.7-0.7
			c-0.6,0-1.1,0.1-1.6,0.4s-0.9,0.6-1.4,1v9.6H147.1z"/>
		<path class="st0" d="M167.5,64c0.8,0,1.6,0.1,2.3,0.4c0.7,0.3,1.3,0.7,1.8,1.2c0.5,0.5,0.9,1.1,1.2,1.9s0.4,1.6,0.4,2.6
			c0,0.5-0.1,0.8-0.2,1s-0.3,0.3-0.6,0.3h-8.3c0.1,0.7,0.2,1.3,0.4,1.8c0.2,0.5,0.4,0.9,0.8,1.2c0.3,0.3,0.7,0.6,1.1,0.7
			c0.4,0.2,0.9,0.2,1.4,0.2s1-0.1,1.3-0.2c0.4-0.1,0.7-0.3,1-0.4s0.5-0.3,0.7-0.4c0.2-0.1,0.4-0.2,0.6-0.2c0.3,0,0.5,0.1,0.6,0.3
			l0.9,1.2c-0.4,0.4-0.8,0.8-1.2,1s-0.9,0.5-1.4,0.7s-1,0.3-1.5,0.4c-0.5,0.1-1,0.1-1.4,0.1c-0.9,0-1.8-0.2-2.6-0.5
			s-1.5-0.8-2.1-1.4s-1.1-1.3-1.4-2.2c-0.3-0.9-0.5-1.9-0.5-3.1c0-0.9,0.1-1.8,0.4-2.6c0.3-0.8,0.7-1.5,1.3-2.1
			c0.6-0.6,1.2-1.1,2-1.4S166.5,64,167.5,64z M167.5,66.3c-0.9,0-1.7,0.3-2.2,0.8c-0.5,0.5-0.9,1.3-1,2.2h6.1c0-0.4-0.1-0.8-0.2-1.2
			c-0.1-0.4-0.3-0.7-0.5-1c-0.2-0.3-0.5-0.5-0.9-0.7C168.4,66.4,168,66.3,167.5,66.3z"/>
		<path class="st0" d="M178.8,64.2v8.5c0,0.8,0.2,1.4,0.6,1.9c0.4,0.4,0.9,0.7,1.7,0.7c0.6,0,1.1-0.1,1.6-0.4s0.9-0.6,1.4-1v-9.6
			h3.2v13.3h-2c-0.4,0-0.7-0.2-0.8-0.6l-0.2-1.1c-0.3,0.3-0.6,0.5-0.9,0.8c-0.3,0.2-0.6,0.4-0.9,0.6c-0.3,0.2-0.7,0.3-1.1,0.4
			c-0.4,0.1-0.8,0.1-1.2,0.1c-0.7,0-1.4-0.1-1.9-0.4s-1-0.6-1.4-1s-0.7-1-0.9-1.6s-0.3-1.3-0.3-2v-8.5H178.8z"/>
		<path class="st0" d="M190.3,77.5V64.2h2c0.4,0,0.7,0.2,0.8,0.6l0.2,1c0.2-0.3,0.5-0.5,0.7-0.7c0.3-0.2,0.5-0.4,0.8-0.6
			c0.3-0.2,0.6-0.3,0.9-0.4c0.3-0.1,0.7-0.1,1.1-0.1c0.8,0,1.5,0.2,2.1,0.7c0.5,0.5,0.9,1.1,1.2,1.8c0.2-0.4,0.5-0.8,0.8-1.1
			s0.7-0.6,1-0.8s0.8-0.3,1.2-0.4c0.4-0.1,0.8-0.1,1.3-0.1c0.7,0,1.4,0.1,2,0.3c0.6,0.2,1.1,0.6,1.4,1c0.4,0.4,0.7,1,0.9,1.6
			c0.2,0.6,0.3,1.3,0.3,2.1v8.5h-3.2v-8.5c0-0.8-0.2-1.5-0.6-1.9c-0.4-0.4-0.9-0.6-1.6-0.6c-0.3,0-0.6,0.1-0.9,0.2
			c-0.3,0.1-0.5,0.3-0.7,0.5s-0.4,0.5-0.5,0.8c-0.1,0.3-0.2,0.7-0.2,1.1v8.5h-3.2v-8.5c0-0.9-0.2-1.5-0.5-2
			c-0.4-0.4-0.9-0.6-1.6-0.6c-0.5,0-0.9,0.1-1.3,0.3c-0.4,0.2-0.8,0.5-1.1,0.9v9.8H190.3z"/>
		<path class="st0" d="M220.8,77.5c-0.3,0-0.5,0-0.7-0.1c-0.2-0.1-0.3-0.3-0.4-0.6l-0.3-0.9c-0.3,0.3-0.7,0.6-1,0.8s-0.7,0.4-1,0.6
			c-0.3,0.2-0.7,0.3-1.1,0.4c-0.4,0.1-0.8,0.1-1.3,0.1c-0.6,0-1.1-0.1-1.6-0.2s-0.9-0.4-1.2-0.7c-0.3-0.3-0.6-0.7-0.8-1.1
			c-0.2-0.5-0.3-1-0.3-1.6c0-0.5,0.1-1,0.4-1.5c0.3-0.5,0.7-0.9,1.3-1.3c0.6-0.4,1.4-0.7,2.5-1c1-0.3,2.3-0.4,3.8-0.4v-0.8
			c0-0.9-0.2-1.6-0.6-2c-0.4-0.4-0.9-0.6-1.7-0.6c-0.5,0-1,0.1-1.3,0.2c-0.3,0.1-0.6,0.3-0.9,0.4c-0.3,0.2-0.5,0.3-0.7,0.4
			c-0.2,0.1-0.4,0.2-0.7,0.2c-0.2,0-0.4-0.1-0.6-0.2c-0.2-0.1-0.3-0.3-0.4-0.4l-0.6-1c1.5-1.4,3.4-2.1,5.5-2.1
			c0.8,0,1.5,0.1,2.1,0.4c0.6,0.3,1.1,0.6,1.6,1.1c0.4,0.5,0.7,1,1,1.6c0.2,0.6,0.3,1.3,0.3,2.1v8.4H220.8z M216,75.5
			c0.7,0,1.2-0.1,1.7-0.4s1-0.6,1.4-1.1v-2.2c-0.9,0-1.7,0.1-2.3,0.2c-0.6,0.1-1.1,0.3-1.5,0.4c-0.4,0.2-0.7,0.4-0.8,0.6
			c-0.2,0.2-0.2,0.5-0.2,0.8c0,0.6,0.2,1,0.5,1.2C215.1,75.4,215.5,75.5,216,75.5z"/>
		<path class="st0" d="M229.6,77.8c-1.2,0-2.1-0.3-2.7-1s-0.9-1.6-0.9-2.7v-7.4h-1.4c-0.2,0-0.3-0.1-0.4-0.2
			c-0.1-0.1-0.2-0.3-0.2-0.5v-1.3l2.1-0.4l0.7-3.6c0-0.2,0.1-0.3,0.2-0.4c0.1-0.1,0.3-0.1,0.5-0.1h1.7v4.2h3.6v2.3h-3.6v7.2
			c0,0.4,0.1,0.7,0.3,1s0.5,0.4,0.8,0.4c0.2,0,0.4,0,0.5-0.1c0.1,0,0.3-0.1,0.4-0.1c0.1-0.1,0.2-0.1,0.3-0.1c0.1,0,0.2-0.1,0.2-0.1
			c0.1,0,0.2,0,0.2,0.1c0.1,0,0.1,0.1,0.2,0.2l1,1.6c-0.5,0.4-1,0.7-1.6,0.9C230.9,77.7,230.2,77.8,229.6,77.8z"/>
		<path class="st0" d="M240.7,64c1,0,1.9,0.2,2.7,0.5c0.8,0.3,1.5,0.8,2.1,1.4c0.6,0.6,1,1.3,1.3,2.2c0.3,0.8,0.5,1.8,0.5,2.8
			c0,1.1-0.2,2-0.5,2.9c-0.3,0.8-0.8,1.6-1.3,2.2c-0.6,0.6-1.3,1.1-2.1,1.4c-0.8,0.3-1.7,0.5-2.7,0.5c-1,0-1.9-0.2-2.7-0.5
			c-0.8-0.3-1.5-0.8-2.1-1.4c-0.6-0.6-1-1.3-1.3-2.2c-0.3-0.8-0.5-1.8-0.5-2.9c0-1,0.2-2,0.5-2.8c0.3-0.8,0.8-1.6,1.3-2.2
			c0.6-0.6,1.3-1,2.1-1.4C238.8,64.2,239.7,64,240.7,64z M240.7,75.3c1.1,0,1.9-0.4,2.5-1.1c0.5-0.7,0.8-1.8,0.8-3.3
			s-0.3-2.5-0.8-3.3c-0.5-0.8-1.4-1.1-2.5-1.1c-1.1,0-2,0.4-2.5,1.1c-0.5,0.8-0.8,1.9-0.8,3.3s0.3,2.5,0.8,3.3
			S239.6,75.3,240.7,75.3z"/>
		<path class="st0" d="M253,58.2v19.3h-3.2V58.2H253z"/>
		<path class="st0" d="M262.1,64c1,0,1.9,0.2,2.7,0.5c0.8,0.3,1.5,0.8,2.1,1.4c0.6,0.6,1,1.3,1.3,2.2c0.3,0.8,0.5,1.8,0.5,2.8
			c0,1.1-0.2,2-0.5,2.9c-0.3,0.8-0.8,1.6-1.3,2.2c-0.6,0.6-1.3,1.1-2.1,1.4c-0.8,0.3-1.7,0.5-2.7,0.5c-1,0-1.9-0.2-2.7-0.5
			c-0.8-0.3-1.5-0.8-2.1-1.4c-0.6-0.6-1-1.3-1.3-2.2c-0.3-0.8-0.5-1.8-0.5-2.9c0-1,0.2-2,0.5-2.8c0.3-0.8,0.8-1.6,1.3-2.2
			c0.6-0.6,1.3-1,2.1-1.4C260.2,64.2,261.1,64,262.1,64z M262.1,75.3c1.1,0,1.9-0.4,2.5-1.1c0.5-0.7,0.8-1.8,0.8-3.3
			s-0.3-2.5-0.8-3.3c-0.5-0.8-1.4-1.1-2.5-1.1c-1.1,0-2,0.4-2.5,1.1c-0.5,0.8-0.8,1.9-0.8,3.3s0.3,2.5,0.8,3.3S261,75.3,262.1,75.3z
			"/>
		<path class="st0" d="M276,64c0.6,0,1.1,0.1,1.6,0.2s1,0.3,1.4,0.5h3.8v1.2c0,0.4-0.2,0.6-0.7,0.7l-1.2,0.2
			c0.1,0.2,0.2,0.5,0.2,0.7c0,0.3,0.1,0.5,0.1,0.8c0,0.7-0.1,1.3-0.4,1.8c-0.3,0.5-0.6,1-1.1,1.4c-0.5,0.4-1,0.7-1.7,0.9
			s-1.3,0.3-2.1,0.3c-0.5,0-1,0-1.5-0.1c-0.4,0.3-0.6,0.5-0.6,0.8c0,0.3,0.1,0.5,0.4,0.6c0.2,0.1,0.6,0.2,1,0.3
			c0.4,0.1,0.9,0.1,1.4,0.1c0.5,0,1.1,0,1.6,0.1c0.5,0,1.1,0.1,1.6,0.2c0.5,0.1,1,0.3,1.4,0.5c0.4,0.2,0.7,0.6,1,1s0.4,0.9,0.4,1.6
			c0,0.6-0.1,1.2-0.4,1.7c-0.3,0.6-0.7,1-1.3,1.5c-0.6,0.4-1.2,0.8-2,1c-0.8,0.3-1.7,0.4-2.7,0.4c-1,0-1.9-0.1-2.6-0.3
			c-0.7-0.2-1.4-0.5-1.9-0.8c-0.5-0.3-0.9-0.7-1.1-1.1c-0.2-0.4-0.4-0.9-0.4-1.3c0-0.6,0.2-1.1,0.6-1.6c0.4-0.4,0.9-0.8,1.5-1
			c-0.3-0.2-0.6-0.4-0.8-0.7s-0.3-0.7-0.3-1.2c0-0.2,0-0.4,0.1-0.6c0.1-0.2,0.2-0.4,0.3-0.6s0.3-0.4,0.5-0.6
			c0.2-0.2,0.5-0.4,0.8-0.5c-0.7-0.4-1.2-0.8-1.6-1.5c-0.4-0.6-0.6-1.3-0.6-2.1c0-0.7,0.1-1.3,0.4-1.8c0.3-0.5,0.6-1,1.1-1.4
			s1-0.7,1.7-0.9C274.5,64.1,275.3,64,276,64z M279.6,78.1c0-0.3-0.1-0.5-0.2-0.6c-0.2-0.2-0.4-0.3-0.6-0.4
			c-0.3-0.1-0.6-0.2-0.9-0.2c-0.4,0-0.7-0.1-1.1-0.1c-0.4,0-0.8,0-1.2-0.1c-0.4,0-0.8-0.1-1.3-0.1c-0.4,0.2-0.6,0.4-0.9,0.7
			c-0.2,0.3-0.3,0.6-0.3,0.9c0,0.2,0.1,0.5,0.2,0.7c0.1,0.2,0.3,0.4,0.6,0.5c0.3,0.1,0.6,0.3,1,0.3c0.4,0.1,0.9,0.1,1.5,0.1
			c0.6,0,1.1,0,1.5-0.1c0.4-0.1,0.8-0.2,1.1-0.4c0.3-0.2,0.5-0.4,0.6-0.6C279.6,78.6,279.6,78.4,279.6,78.1z M276,70.6
			c0.4,0,0.7-0.1,1-0.2c0.3-0.1,0.5-0.3,0.7-0.4c0.2-0.2,0.3-0.4,0.4-0.7c0.1-0.3,0.1-0.6,0.1-0.9c0-0.7-0.2-1.2-0.6-1.6
			c-0.4-0.4-1-0.6-1.8-0.6s-1.4,0.2-1.8,0.6c-0.4,0.4-0.6,0.9-0.6,1.6c0,0.3,0,0.6,0.1,0.9c0.1,0.3,0.2,0.5,0.4,0.7
			c0.2,0.2,0.4,0.3,0.7,0.5C275.3,70.5,275.6,70.6,276,70.6z"/>
		<path class="st0" d="M289.7,81.2c-0.1,0.2-0.2,0.4-0.4,0.5c-0.2,0.1-0.4,0.2-0.7,0.2h-2.4l2.5-5.3l-5.4-12.4h2.8
			c0.3,0,0.4,0.1,0.6,0.2c0.1,0.1,0.2,0.3,0.3,0.4l2.8,6.9c0.2,0.5,0.3,0.9,0.4,1.4c0.1-0.2,0.1-0.5,0.2-0.7s0.2-0.5,0.3-0.7
			l2.7-6.9c0.1-0.2,0.2-0.3,0.3-0.4s0.3-0.2,0.5-0.2h2.6L289.7,81.2z"/>
	</g>
	<rect x="99" y="24" class="st1" width="17" height="55"/>
	<rect x="75" y="8" class="st2" width="17" height="71"/>
	<rect x="50" class="st3" width="17" height="79"/>
	<rect x="26" y="13" class="st4" width="17" height="66"/>
	<polygon class="st5" points="9.2,79 18,79 18,39 0,39 0,63.7 	"/>
</g>
</svg>
