<?xml version="1.0" encoding="UTF-8"?><svg id="Layer_2" xmlns="http://www.w3.org/2000/svg" viewBox="0 0 1248.32 223.28"><defs><style>.cls-1{fill:#f9a11d;}.cls-2{fill:#00b3c5;}.cls-3{fill:#ee2a3c;}.cls-4{fill:#fff;}.cls-5{fill:#9e489b;}.cls-6{fill:#3eb771;}</style></defs><g id="Layer_1-2"><rect class="cls-6" x="267.85" y="68.27" width="47.27" height="147.05"/><rect class="cls-2" x="199.57" y="21.01" width="47.27" height="194.32"/><rect class="cls-3" x="136.55" width="47.27" height="215.33"/><rect class="cls-1" x="68.27" y="36.76" width="47.27" height="178.56"/><polygon class="cls-5" points="24.14 215.33 47.27 215.33 47.27 105.04 0 105.04 0 173.69 24.14 215.33"/><path class="cls-4" d="m457.5,96.51c4.9,0,9.55.61,13.95,1.84,4.4,1.23,8.24,3.09,11.52,5.6,3.28,2.51,5.9,5.74,7.85,9.69,1.95,3.95,2.92,8.6,2.92,13.95,0,7.57-1.95,14.14-5.85,19.71-3.9,5.57-9.69,9.13-17.37,10.69v.33c3.9.56,7.12,1.59,9.69,3.09,2.56,1.5,4.65,3.42,6.26,5.76,1.61,2.34,2.78,5.04,3.51,8.1.72,3.06,1.2,6.38,1.42,9.94.11,2,.22,4.46.33,7.35.11,2.9.33,5.82.67,8.77.33,2.95.86,5.74,1.59,8.35.72,2.62,1.7,4.65,2.92,6.1h-12.53c-.67-1.11-1.2-2.48-1.59-4.09-.39-1.61-.67-3.28-.83-5.01-.17-1.72-.31-3.42-.42-5.09-.11-1.67-.22-3.12-.33-4.34-.22-4.23-.58-8.43-1.09-12.61-.5-4.18-1.56-7.91-3.17-11.19-1.62-3.28-3.95-5.93-7.02-7.93-3.06-2-7.27-2.89-12.61-2.67h-43.09v52.94h-11.36v-119.25h54.61Zm-.83,56.62c3.45,0,6.74-.53,9.85-1.59,3.12-1.06,5.85-2.59,8.18-4.59s4.2-4.43,5.6-7.27c1.39-2.84,2.09-6.1,2.09-9.77,0-7.35-2.12-13.14-6.35-17.37-4.23-4.23-10.69-6.35-19.37-6.35h-42.42v46.93h42.42Z"/><path class="cls-4" d="m522.63,96.51v47.93h.33c2-5.23,5.57-9.44,10.69-12.61,5.12-3.17,10.74-4.76,16.87-4.76s11.05.78,15.12,2.34c4.06,1.56,7.32,3.76,9.77,6.6,2.45,2.84,4.18,6.32,5.18,10.44,1,4.12,1.5,8.74,1.5,13.86v55.45h-10.52v-53.78c0-3.67-.33-7.1-1-10.27-.67-3.17-1.84-5.93-3.51-8.27-1.67-2.34-3.92-4.17-6.76-5.51-2.84-1.34-6.38-2-10.61-2s-7.99.75-11.27,2.25c-3.29,1.5-6.07,3.56-8.35,6.18-2.28,2.62-4.07,5.74-5.34,9.35-1.28,3.62-1.98,7.54-2.09,11.77v50.27h-10.52v-119.25h10.52Z"/><path class="cls-4" d="m609.73,187.29c1.06,4.07,2.76,7.71,5.09,10.94,2.34,3.23,5.29,5.9,8.85,8.02,3.56,2.12,7.85,3.17,12.86,3.17,7.68,0,13.7-2,18.04-6.01s7.35-9.35,9.02-16.03h10.52c-2.23,9.8-6.32,17.37-12.28,22.71-5.96,5.34-14.39,8.02-25.3,8.02-6.79,0-12.67-1.2-17.62-3.59-4.96-2.39-8.99-5.68-12.11-9.85-3.12-4.18-5.43-9.02-6.93-14.53-1.5-5.51-2.25-11.33-2.25-17.45,0-5.68.75-11.25,2.25-16.7,1.5-5.45,3.81-10.33,6.93-14.61,3.12-4.29,7.15-7.74,12.11-10.36,4.95-2.61,10.83-3.92,17.62-3.92s12.8,1.39,17.7,4.18c4.9,2.78,8.88,6.43,11.94,10.94,3.06,4.51,5.26,9.69,6.6,15.53s1.89,11.78,1.67,17.79h-66.31c0,3.79.53,7.71,1.59,11.77Zm52.11-32.15c-1.28-3.67-3.09-6.93-5.43-9.77-2.34-2.84-5.18-5.12-8.52-6.85-3.34-1.72-7.13-2.59-11.36-2.59s-8.18.86-11.52,2.59c-3.34,1.73-6.18,4.01-8.52,6.85-2.34,2.84-4.2,6.12-5.6,9.85-1.39,3.73-2.31,7.54-2.76,11.44h55.78c-.11-4.01-.81-7.85-2.09-11.52Z"/><path class="cls-4" d="m748.77,215.77v-15.53h-.33c-2.78,5.79-6.82,10.22-12.11,13.28-5.29,3.06-11.16,4.59-17.62,4.59-5.46,0-10.1-.75-13.95-2.25-3.84-1.5-6.96-3.65-9.35-6.43-2.4-2.78-4.15-6.18-5.26-10.19-1.11-4.01-1.67-8.57-1.67-13.7v-55.95h10.52v56.12c.22,7.79,2.03,13.7,5.43,17.7,3.39,4.01,9.27,6.01,17.62,6.01,4.56,0,8.46-.97,11.69-2.92,3.23-1.95,5.9-4.54,8.02-7.77,2.11-3.23,3.67-6.93,4.68-11.11s1.5-8.43,1.5-12.78v-45.26h10.52v86.18h-9.69Z"/><path class="cls-4" d="m788.02,129.58v14.53h.5c2.78-5.34,6.43-9.52,10.94-12.53,4.51-3.01,10.27-4.51,17.29-4.51,5.68,0,10.83,1.39,15.45,4.18,4.62,2.78,7.71,7.01,9.27,12.69,2.56-5.68,6.35-9.91,11.36-12.69,5.01-2.78,10.35-4.18,16.03-4.18,19.04,0,28.56,10.08,28.56,30.23v58.46h-10.52v-57.96c0-7.12-1.5-12.55-4.51-16.28-3.01-3.73-8.3-5.6-15.87-5.6-4.57,0-8.35.86-11.36,2.59-3.01,1.73-5.4,4.04-7.18,6.93-1.78,2.9-3.04,6.21-3.76,9.94-.73,3.73-1.09,7.6-1.09,11.61v48.77h-10.52v-58.46c0-2.89-.31-5.65-.92-8.27-.61-2.62-1.62-4.9-3.01-6.85-1.39-1.95-3.26-3.48-5.59-4.59-2.34-1.11-5.18-1.67-8.52-1.67-4.45,0-8.32.81-11.61,2.42-3.29,1.62-5.96,3.84-8.02,6.68-2.06,2.84-3.59,6.18-4.59,10.02-1,3.84-1.5,8.04-1.5,12.61v48.1h-10.52v-86.18h9.69Z"/><path class="cls-4" d="m930.82,96.51v51.78h70.82v-51.78h11.36v119.25h-11.36v-57.79h-70.82v57.79h-11.36v-119.25h11.36Z"/><path class="cls-4" d="m1084.64,96.51l46.76,119.25h-12.19l-14.53-37.08h-54.28l-14.36,37.08h-12.03l47.93-119.25h12.69Zm16.2,72.49l-23.05-61.13-23.88,61.13h46.93Z"/><path class="cls-4" d="m1223.1,209.42c-8.13,5.79-18.43,8.68-30.9,8.68-9.35,0-17.57-1.7-24.64-5.09-7.07-3.4-12.94-7.93-17.62-13.61s-8.18-12.25-10.52-19.71c-2.34-7.46-3.51-15.31-3.51-23.55s1.17-16.09,3.51-23.55c2.34-7.46,5.85-14.06,10.52-19.79,4.68-5.73,10.55-10.3,17.62-13.7,7.07-3.4,15.28-5.09,24.64-5.09s17.54,1.7,24.55,5.09c7.01,3.4,12.86,7.96,17.54,13.7,4.68,5.74,8.18,12.33,10.52,19.79,2.34,7.46,3.51,15.31,3.51,23.55,0,9.35-1.5,18.12-4.51,26.31-3.01,8.18-7.52,15.17-13.53,20.96l17.04,12.86-5.68,7.01-18.54-13.86Zm10.27-30.9c2.39-7.24,3.59-14.7,3.59-22.38,0-6.57-.86-12.97-2.59-19.21-1.73-6.23-4.4-11.83-8.02-16.79-3.62-4.95-8.24-8.94-13.86-11.94-5.62-3.01-12.39-4.51-20.29-4.51s-14.7,1.5-20.38,4.51c-5.68,3.01-10.33,6.99-13.95,11.94-3.62,4.96-6.29,10.55-8.02,16.79-1.73,6.24-2.59,12.64-2.59,19.21s.86,12.83,2.59,19.12c1.72,6.29,4.4,11.92,8.02,16.87,3.62,4.96,8.27,8.94,13.95,11.94,5.68,3.01,12.47,4.51,20.38,4.51,8.46,0,15.81-1.95,22.05-5.85l-15.7-11.86,5.85-7.18,17.37,13.19c5.34-5.01,9.21-11.13,11.61-18.37Z"/></g></svg>