<?xml version="1.0" encoding="utf-8"?>
<!-- Generator: Adobe Illustrator 19.1.0, SVG Export Plug-In . SVG Version: 6.00 Build 0)  -->
<svg version="1.1" id="Layer_1" xmlns="http://www.w3.org/2000/svg" xmlns:xlink="http://www.w3.org/1999/xlink" x="0px" y="0px"
	 viewBox="0 0 233.9 41.4" style="enable-background:new 0 0 233.9 41.4;" xml:space="preserve">
<style type="text/css">
	.st0{fill:#3EB771;}
	.st1{fill:#00B3C5;}
	.st2{fill:#EE2A3C;}
	.st3{fill:#F9A11D;}
	.st4{fill:#9E489B;}
	.st5{fill:#FFFFFF;}
</style>
<g>
	<g>
		<rect x="51" y="13" class="st0" width="9" height="28"/>
		<rect x="38" y="4" class="st1" width="9" height="37"/>
		<rect x="26" class="st2" width="9" height="41"/>
		<rect x="13" y="7" class="st3" width="9" height="34"/>
		<polygon class="st4" points="4.6,41 9,41 9,20 0,20 0,33.1 		"/>
	</g>
	<g>
		<path class="st5" d="M86.6,18.2c0.9,0,1.8,0.1,2.7,0.4c0.8,0.2,1.6,0.6,2.2,1.1c0.6,0.5,1.1,1.1,1.5,1.9c0.4,0.8,0.6,1.6,0.6,2.7
			c0,1.5-0.4,2.7-1.1,3.8c-0.7,1.1-1.9,1.7-3.3,2V30c0.7,0.1,1.4,0.3,1.9,0.6c0.5,0.3,0.9,0.7,1.2,1.1c0.3,0.4,0.5,1,0.7,1.6
			c0.1,0.6,0.2,1.2,0.3,1.9c0,0.4,0,0.9,0.1,1.4c0,0.6,0.1,1.1,0.1,1.7c0.1,0.6,0.2,1.1,0.3,1.6c0.1,0.5,0.3,0.9,0.6,1.2h-2.4
			c-0.1-0.2-0.2-0.5-0.3-0.8c-0.1-0.3-0.1-0.6-0.2-1c0-0.3-0.1-0.7-0.1-1c0-0.3,0-0.6-0.1-0.8c0-0.8-0.1-1.6-0.2-2.4
			c-0.1-0.8-0.3-1.5-0.6-2.1c-0.3-0.6-0.8-1.1-1.3-1.5c-0.6-0.4-1.4-0.6-2.4-0.5h-8.3V41h-2.2V18.2H86.6z M86.5,29
			c0.7,0,1.3-0.1,1.9-0.3c0.6-0.2,1.1-0.5,1.6-0.9c0.4-0.4,0.8-0.8,1.1-1.4c0.3-0.5,0.4-1.2,0.4-1.9c0-1.4-0.4-2.5-1.2-3.3
			c-0.8-0.8-2-1.2-3.7-1.2h-8.1v9H86.5z"/>
		<path class="st5" d="M99.1,18.2v9.2h0.1c0.4-1,1.1-1.8,2-2.4c1-0.6,2.1-0.9,3.2-0.9c1.2,0,2.1,0.1,2.9,0.4
			c0.8,0.3,1.4,0.7,1.9,1.3c0.5,0.5,0.8,1.2,1,2c0.2,0.8,0.3,1.7,0.3,2.7V41h-2V30.7c0-0.7-0.1-1.4-0.2-2s-0.4-1.1-0.7-1.6
			c-0.3-0.4-0.8-0.8-1.3-1.1c-0.5-0.3-1.2-0.4-2-0.4c-0.8,0-1.5,0.1-2.2,0.4c-0.6,0.3-1.2,0.7-1.6,1.2c-0.4,0.5-0.8,1.1-1,1.8
			c-0.2,0.7-0.4,1.4-0.4,2.3V41h-2V18.2H99.1z"/>
		<path class="st5" d="M115.8,35.5c0.2,0.8,0.5,1.5,1,2.1c0.4,0.6,1,1.1,1.7,1.5c0.7,0.4,1.5,0.6,2.5,0.6c1.5,0,2.6-0.4,3.5-1.2
			s1.4-1.8,1.7-3.1h2c-0.4,1.9-1.2,3.3-2.4,4.4c-1.1,1-2.8,1.5-4.8,1.5c-1.3,0-2.4-0.2-3.4-0.7c-0.9-0.5-1.7-1.1-2.3-1.9
			c-0.6-0.8-1-1.7-1.3-2.8c-0.3-1.1-0.4-2.2-0.4-3.3c0-1.1,0.1-2.2,0.4-3.2c0.3-1,0.7-2,1.3-2.8c0.6-0.8,1.4-1.5,2.3-2
			c0.9-0.5,2.1-0.8,3.4-0.8c1.3,0,2.5,0.3,3.4,0.8c0.9,0.5,1.7,1.2,2.3,2.1c0.6,0.9,1,1.9,1.3,3c0.3,1.1,0.4,2.3,0.3,3.4h-12.7
			C115.5,34,115.6,34.8,115.8,35.5z M125.8,29.4c-0.2-0.7-0.6-1.3-1-1.9c-0.4-0.5-1-1-1.6-1.3c-0.6-0.3-1.4-0.5-2.2-0.5
			c-0.8,0-1.6,0.2-2.2,0.5s-1.2,0.8-1.6,1.3c-0.4,0.5-0.8,1.2-1.1,1.9c-0.3,0.7-0.4,1.4-0.5,2.2h10.7
			C126.2,30.8,126,30.1,125.8,29.4z"/>
		<path class="st5" d="M142.4,41v-3h-0.1c-0.5,1.1-1.3,2-2.3,2.5c-1,0.6-2.1,0.9-3.4,0.9c-1,0-1.9-0.1-2.7-0.4
			c-0.7-0.3-1.3-0.7-1.8-1.2c-0.5-0.5-0.8-1.2-1-2c-0.2-0.8-0.3-1.6-0.3-2.6V24.5h2v10.8c0,1.5,0.4,2.6,1,3.4s1.8,1.2,3.4,1.2
			c0.9,0,1.6-0.2,2.2-0.6c0.6-0.4,1.1-0.9,1.5-1.5c0.4-0.6,0.7-1.3,0.9-2.1c0.2-0.8,0.3-1.6,0.3-2.4v-8.7h2V41H142.4z"/>
		<path class="st5" d="M150,24.5v2.8h0.1c0.5-1,1.2-1.8,2.1-2.4c0.9-0.6,2-0.9,3.3-0.9c1.1,0,2.1,0.3,3,0.8c0.9,0.5,1.5,1.3,1.8,2.4
			c0.5-1.1,1.2-1.9,2.2-2.4s2-0.8,3.1-0.8c3.6,0,5.5,1.9,5.5,5.8V41h-2V29.9c0-1.4-0.3-2.4-0.9-3.1c-0.6-0.7-1.6-1.1-3-1.1
			c-0.9,0-1.6,0.2-2.2,0.5c-0.6,0.3-1,0.8-1.4,1.3c-0.3,0.6-0.6,1.2-0.7,1.9c-0.1,0.7-0.2,1.5-0.2,2.2V41h-2V29.8
			c0-0.6-0.1-1.1-0.2-1.6c-0.1-0.5-0.3-0.9-0.6-1.3c-0.3-0.4-0.6-0.7-1.1-0.9c-0.4-0.2-1-0.3-1.6-0.3c-0.9,0-1.6,0.2-2.2,0.5
			c-0.6,0.3-1.1,0.7-1.5,1.3c-0.4,0.5-0.7,1.2-0.9,1.9c-0.2,0.7-0.3,1.5-0.3,2.4V41h-2V24.5H150z"/>
		<path class="st5" d="M183.1,18.2c3.5,0.1,6.1,1.1,7.9,2.9c1.8,1.9,2.6,4.7,2.6,8.5s-0.9,6.6-2.6,8.5c-1.8,1.9-4.4,2.8-7.9,2.9
			h-7.9V18.2H183.1z M182,39.1c1.6,0,3.1-0.2,4.2-0.5c1.2-0.4,2.2-0.9,2.9-1.7c0.8-0.8,1.3-1.8,1.7-3c0.4-1.2,0.5-2.7,0.5-4.4
			c0-1.7-0.2-3.2-0.5-4.4c-0.4-1.2-0.9-2.2-1.7-3c-0.8-0.8-1.7-1.3-2.9-1.7S183.6,20,182,20h-4.6v19.1H182z"/>
		<path class="st5" d="M206.2,18.2l9,22.8h-2.3l-2.8-7.1h-10.4l-2.8,7.1h-2.3l9.2-22.8H206.2z M209.3,32l-4.4-11.7L200.3,32H209.3z"
			/>
		<path class="st5" d="M218.8,36.4c0.4,0.8,0.9,1.4,1.6,1.9c0.7,0.5,1.5,0.8,2.4,1c0.9,0.2,1.9,0.3,2.9,0.3c0.6,0,1.2-0.1,2-0.3
			s1.4-0.4,2-0.8c0.6-0.4,1.1-0.9,1.5-1.4c0.4-0.6,0.6-1.3,0.6-2.1c0-0.6-0.1-1.2-0.4-1.7c-0.3-0.5-0.7-0.9-1.1-1.2
			c-0.5-0.3-1-0.6-1.5-0.8c-0.6-0.2-1.1-0.4-1.6-0.5l-5.1-1.2c-0.7-0.2-1.3-0.4-1.9-0.6c-0.6-0.3-1.2-0.6-1.6-1
			c-0.5-0.4-0.8-0.9-1.1-1.6c-0.3-0.6-0.4-1.4-0.4-2.3c0-0.6,0.1-1.2,0.3-2c0.2-0.7,0.6-1.5,1.2-2.1c0.6-0.7,1.4-1.2,2.4-1.7
			c1-0.5,2.3-0.7,3.9-0.7c1.1,0,2.2,0.1,3.2,0.4c1,0.3,1.9,0.7,2.7,1.3c0.8,0.6,1.4,1.3,1.8,2.2c0.5,0.9,0.7,1.9,0.7,3.1H231
			c0-0.9-0.2-1.6-0.6-2.3c-0.4-0.7-0.8-1.2-1.4-1.6c-0.6-0.4-1.2-0.8-2-1c-0.7-0.2-1.5-0.3-2.3-0.3c-0.7,0-1.5,0.1-2.2,0.2
			s-1.3,0.4-1.8,0.8s-0.9,0.8-1.3,1.4c-0.3,0.6-0.5,1.3-0.5,2.1c0,0.5,0.1,1,0.3,1.4c0.2,0.4,0.4,0.7,0.8,1s0.7,0.5,1.1,0.7
			c0.4,0.2,0.9,0.3,1.3,0.4l5.6,1.4c0.8,0.2,1.6,0.5,2.3,0.8s1.3,0.7,1.9,1.2c0.5,0.5,1,1,1.3,1.7c0.3,0.7,0.5,1.5,0.5,2.4
			c0,0.3,0,0.6-0.1,1s-0.2,0.9-0.4,1.4c-0.2,0.5-0.5,1-0.9,1.5c-0.4,0.5-0.9,0.9-1.5,1.3c-0.7,0.4-1.5,0.7-2.4,1
			c-1,0.2-2.1,0.4-3.5,0.4c-1.3,0-2.6-0.2-3.7-0.5c-1.2-0.3-2.1-0.8-2.9-1.4s-1.4-1.5-1.9-2.5s-0.6-2.2-0.6-3.6h2.2
			C218.2,34.7,218.4,35.6,218.8,36.4z"/>
	</g>
</g>
</svg>
